<svg version="1.1" preserveAspectRatio="none" xmlns="http://www.w3.org/2000/svg" width="500" height="500" viewBox="0 0 500 500"><rect width="100%" height="100%" fill="#E9E9E9" fill-opacity="1"/><svg viewBox="64.5331 268.3814 517.9919 200" width="333" height="128.5734390827347" x="83.5px" y="185.7133px" xmlns="http://www.w3.org/2000/svg" xmlns:xlink="http://www.w3.org/1999/xlink" preserveAspectRatio="none"><defs></defs><style>.companyName {fill:#1e1e1e;fill-opacity:1;}.icon3-str {stroke:#848383;stroke-opacity:1;}.shape {fill:#F3F3F3;fill-opacity:1;}.shapeStroke-str {stroke:#1e1e1e;stroke-opacity:1;}</style><g opacity="1" transform="rotate(0 84.5331 288.3814)">
<svg width="497.9919" height="180" x="84.5331" y="288.3814" version="1.1" preserveAspectRatio="none" viewBox="0 0 497.9919 180">
  <defs><rect x="14.4" y="14.4" width="469.1919" height="151.2" rx="0%" ry="0%" id="id-ZzOTVRhf1706132292229"></rect></defs><use class="shape shapeStroke-str" style="stroke-width:28.8;" xlink:href="#id-ZzOTVRhf1706132292229"></use>
</svg>
</g><g opacity="1" transform="rotate(0 64.5331 268.3814)">
<svg width="497.9919" height="180" x="64.5331" y="268.3814" version="1.1" preserveAspectRatio="none" viewBox="0 0 497.9919 180">
  <defs><rect x="2.25" y="2.25" width="493.4919" height="175.5" rx="0px" ry="0px" id="id-7KDWqqaq1706132292229"></rect></defs><use class="shape shapeStroke-str" style="stroke-width:4.5;" xlink:href="#id-7KDWqqaq1706132292229"></use>
</svg>
</g><g opacity="1" transform="rotate(0 114.5331 318.3814)">
<svg width="397.9919" height="80" x="114.5331" y="318.3814" version="1.1" preserveAspectRatio="none" viewBox="1.96 -31 156.64 31.48">
  <g transform="matrix(1 0 0 1 0 0)" class="companyName"><path id="id-D6z1nYkh9" d="M19.12-23.76Q17.56-24.60 15.80-25.12Q14.04-25.64 12.48-25.64L12.48-25.64Q10.12-25.64 8.74-24.58Q7.36-23.52 7.36-21.68L7.36-21.68Q7.36-19.88 8.98-18.74Q10.60-17.60 13.60-16.48L13.60-16.48Q15.84-15.68 17.38-14.74Q18.92-13.80 19.94-12.14Q20.96-10.48 20.96-7.92L20.96-7.92Q20.96-5.60 19.80-3.72Q18.64-1.84 16.50-0.76Q14.36 0.32 11.48 0.32L11.48 0.32Q8.80 0.32 6.32-0.54Q3.84-1.40 1.96-2.72L1.96-2.72L3.68-5.80Q5.16-4.68 7.24-3.90Q9.32-3.12 11.12-3.12L11.12-3.12Q13.44-3.12 15.18-4.32Q16.92-5.52 16.92-7.88L16.92-7.88Q16.92-9.88 15.46-11.06Q14-12.24 11.36-13.28L11.36-13.28Q8.92-14.20 7.30-15.08Q5.68-15.96 4.52-17.50Q3.36-19.04 3.36-21.36L3.36-21.36Q3.36-24.76 5.74-26.86Q8.12-28.96 11.92-29.08L11.92-29.08Q16.60-29.08 20.60-26.76L20.60-26.76L19.12-23.76Z M26.52-16.56L30.24-16.56L30.24 0L26.52 0L26.52-16.56ZM26.24-22.52Q26.24-23.40 26.92-24Q27.60-24.60 28.48-24.60L28.48-24.60Q29.36-24.60 30.02-24Q30.68-23.40 30.68-22.52L30.68-22.52Q30.68-21.64 30.02-21.04Q29.36-20.44 28.48-20.44L28.48-20.44Q27.60-20.44 26.92-21.04Q26.24-21.64 26.24-22.52L26.24-22.52Z M36.72-31L40.44-31L40.44 0L36.72 0L36.72-31Z M58.52-16.56L62.68-16.56L53.84 0.48L53.64 0.48L44.44-16.56L48.88-16.56L53.88-6L58.52-16.56Z M79.56-16.56L83.00-16.56L83.00 0L79.28 0L79.28-2.72Q78.40-1.56 76.72-0.58Q75.04 0.40 72.92 0.40L72.92 0.40Q70.56 0.40 68.66-0.62Q66.76-1.64 65.66-3.60Q64.56-5.56 64.56-8.28L64.56-8.28Q64.56-11 65.70-13.02Q66.84-15.04 68.78-16.14Q70.72-17.24 73.08-17.24L73.08-17.24Q75.20-17.24 76.76-16.32Q78.32-15.40 79.28-13.92L79.28-13.92L79.56-16.56ZM73.92-2.68Q75.96-2.68 77.42-3.82Q78.88-4.96 79.28-6.92L79.28-6.92L79.28-10.20Q78.80-11.96 77.28-13.06Q75.76-14.16 73.80-14.16L73.80-14.16Q72.32-14.16 71.06-13.44Q69.80-12.72 69.06-11.42Q68.32-10.12 68.32-8.48L68.32-8.48Q68.32-6.88 69.08-5.56Q69.84-4.24 71.12-3.46Q72.40-2.68 73.92-2.68L73.92-2.68Z M91.08-23.84L94.84-23.84L94.84-16.52L99.36-16.52L99.36-13.56L94.84-13.56L94.84 0L91.08 0L91.08-13.56L88.04-13.56L88.04-16.52L91.08-16.52L91.08-23.84Z M111.64-2.80Q113.72-2.80 115.68-4.24L115.68-4.24L117.40-1.48Q116.08-0.60 114.54-0.10Q113.00 0.40 111.56 0.40L111.56 0.40Q108.80 0.40 106.74-0.74Q104.68-1.88 103.56-3.88Q102.44-5.88 102.44-8.40L102.44-8.40Q102.44-10.84 103.66-12.86Q104.88-14.88 107.00-16.06Q109.12-17.24 111.64-17.24L111.64-17.24Q114.88-17.24 117.06-15.34Q119.24-13.44 120.04-10.04L120.04-10.04L106.92-5.44Q107.64-4.20 108.86-3.50Q110.08-2.80 111.64-2.80L111.64-2.80ZM111.36-14.28Q109.08-14.28 107.60-12.68Q106.12-11.08 106.12-8.60L106.12-8.60Q106.12-8 106.16-7.68L106.16-7.68L115.80-11.24Q115.20-12.60 114.10-13.44Q113.00-14.28 111.36-14.28L111.36-14.28Z M138.12-1.56Q137-0.64 135.46-0.12Q133.92 0.40 132.32 0.40L132.32 0.40Q129.64 0.40 127.58-0.68Q125.52-1.76 124.38-3.74Q123.24-5.72 123.24-8.32L123.24-8.32Q123.24-10.88 124.44-12.86Q125.64-14.84 127.64-15.92Q129.64-17 131.96-17L131.96-17Q135.76-17 138.24-14.92L138.24-14.92L136.36-12.48Q135.56-13.08 134.52-13.50Q133.48-13.92 132.28-13.92L132.28-13.92Q130.80-13.92 129.58-13.18Q128.36-12.44 127.66-11.16Q126.96-9.88 126.96-8.32L126.96-8.32Q126.96-6.76 127.70-5.48Q128.44-4.20 129.72-3.44Q131-2.68 132.64-2.68L132.64-2.68Q134.68-2.68 136.20-3.88L136.20-3.88L138.12-1.56Z M153.20-17.20Q155.52-17.20 157.04-15.82Q158.56-14.44 158.60-12.24L158.60-12.24L158.60 0L154.84 0L154.84-10.96Q154.76-12.36 154-13.16Q153.24-13.96 151.72-14L151.72-14Q150.28-14 149.12-13.20Q147.96-12.40 147.30-10.96Q146.64-9.52 146.64-7.76L146.64-7.76L146.64 0L142.92 0L142.92-31L146.56-31L146.56-13.56Q147.48-15.20 149.22-16.20Q150.96-17.20 153.20-17.20L153.20-17.20Z"/></g>
</svg>
</g></svg></svg>